<?xml version="1.0" standalone="no"?>
<!DOCTYPE svg PUBLIC "-//W3C//DTD SVG 20010904//EN"
 "http://www.w3.org/TR/2001/REC-SVG-20010904/DTD/svg10.dtd">
<svg version="1.0" xmlns="http://www.w3.org/2000/svg"
 width="516.000000pt" height="516.000000pt" viewBox="0 0 516.000000 516.000000"
 preserveAspectRatio="xMidYMid meet">
<metadata>
Created by potrace 1.14, written by Peter Selinger 2001-2017
</metadata>
<g transform="translate(0.000000,516.000000) scale(0.100000,-0.100000)"
fill="#000000" stroke="none">
<path d="M2510 5123 c-25 -8 -48 -20 -52 -27 -4 -6 -8 -7 -8 -3 0 5 -7 1 -16
-7 -8 -9 -19 -14 -24 -11 -4 3 -11 -2 -14 -11 -3 -8 -10 -13 -15 -10 -5 3 -14
-1 -21 -9 -7 -8 -16 -15 -21 -15 -11 0 -112 -61 -120 -73 -3 -5 -9 -8 -13 -7
-14 2 -75 -33 -70 -41 3 -5 -2 -6 -10 -3 -9 3 -16 1 -16 -5 0 -6 -9 -11 -20
-11 -11 0 -20 -3 -20 -7 0 -5 -23 -19 -50 -32 -28 -14 -50 -29 -50 -34 0 -4
-4 -5 -10 -2 -5 3 -10 1 -10 -6 0 -7 -3 -9 -6 -6 -4 4 -19 -2 -33 -12 -14 -10
-51 -31 -81 -48 -30 -17 -75 -42 -100 -57 -25 -15 -53 -29 -62 -33 -10 -3 -18
-10 -18 -15 0 -5 -4 -6 -10 -3 -5 3 -10 1 -10 -4 0 -6 -4 -11 -9 -11 -5 0 -43
-20 -85 -45 -42 -24 -76 -42 -76 -39 0 2 -10 -4 -22 -15 -11 -11 -25 -18 -29
-15 -4 2 -10 0 -13 -5 -4 -5 -41 -28 -84 -52 -42 -23 -78 -46 -80 -50 -2 -5
-10 -9 -17 -9 -8 0 -20 -7 -29 -15 -8 -9 -17 -15 -18 -14 -8 3 -58 -25 -58
-33 0 -4 -9 -8 -19 -8 -11 0 -22 -4 -25 -9 -4 -5 -50 -34 -104 -64 -53 -30
-115 -65 -137 -77 -130 -74 -162 -92 -178 -97 -9 -3 -17 -10 -17 -15 0 -5 -4
-7 -8 -4 -5 3 -19 -4 -30 -15 -12 -10 -24 -20 -27 -20 -24 -3 -45 -13 -45 -21
0 -5 -4 -7 -9 -4 -14 9 -91 -66 -97 -94 -2 -14 -7 -47 -9 -74 -3 -27 -7 -51
-10 -54 -3 -3 3 -14 12 -25 10 -11 13 -18 7 -14 -6 4 -10 -10 -10 -38 0 -28 3
-42 10 -37 6 3 3 -7 -8 -22 -10 -16 -13 -25 -7 -22 7 5 10 -1 7 -16 -2 -13 1
-31 6 -42 7 -13 7 -16 -1 -12 -7 5 -9 -6 -5 -34 4 -27 2 -40 -6 -40 -6 0 -8
-5 -5 -10 4 -6 12 -7 18 -4 8 5 8 3 0 -7 -7 -7 -13 -17 -13 -22 0 -4 6 -5 13
-1 9 6 9 4 2 -7 -12 -16 -12 -159 0 -179 5 -7 4 -11 -1 -7 -13 8 -12 -266 1
-275 7 -5 6 -8 -1 -8 -14 0 -14 -31 0 -49 8 -11 8 -13 0 -8 -7 4 -11 -5 -12
-24 0 -19 3 -27 10 -23 7 5 8 2 2 -7 -13 -21 -13 -190 0 -182 6 4 3 -3 -7 -14
-9 -11 -14 -23 -10 -26 10 -10 11 -167 1 -167 -5 0 -5 -8 0 -17 10 -21 9 -154
-2 -171 -4 -7 -3 -12 1 -12 8 0 10 -109 3 -135 -1 -5 -1 -12 0 -15 7 -16 5
-207 -3 -217 -6 -8 -6 -13 0 -13 10 0 10 -221 -1 -239 -4 -6 -3 -11 2 -11 11
0 10 -40 -1 -57 -5 -7 -5 -13 0 -13 4 0 8 -47 8 -105 0 -58 -4 -105 -8 -105
-5 0 -5 -5 -2 -11 4 -5 8 -27 9 -47 5 -75 41 -113 161 -172 28 -14 52 -27 55
-30 3 -3 19 -12 35 -20 17 -8 47 -25 67 -37 21 -13 38 -21 38 -18 0 2 23 -9
50 -25 28 -17 55 -30 59 -30 5 0 14 -7 21 -15 7 -8 16 -12 21 -9 5 3 9 1 9 -3
0 -8 82 -53 95 -53 3 0 15 -9 27 -20 12 -11 30 -20 40 -20 10 0 18 -4 18 -8 0
-8 51 -36 59 -32 2 1 7 -2 10 -8 7 -10 204 -127 209 -124 1 2 14 -6 29 -18 14
-11 32 -20 39 -20 8 0 14 -5 14 -11 0 -5 4 -7 10 -4 5 3 10 2 10 -3 0 -5 15
-15 33 -23 17 -7 34 -15 37 -18 3 -3 14 -11 25 -17 11 -6 41 -23 68 -37 26
-15 68 -39 95 -53 26 -15 97 -55 157 -89 103 -58 165 -92 275 -153 25 -14 113
-63 195 -110 140 -80 154 -86 210 -87 33 -1 65 1 70 4 6 3 18 7 28 8 22 4 180
92 189 107 4 6 8 8 8 4 0 -4 44 18 98 49 53 31 116 66 139 78 23 12 48 26 55
32 7 6 38 24 68 40 88 48 135 76 141 86 3 5 8 8 10 7 9 -4 59 24 59 32 0 5 5
6 10 3 6 -3 10 -1 10 6 0 7 3 9 7 6 3 -4 21 5 40 19 18 14 33 22 33 19 0 -3
19 7 43 22 54 36 74 48 117 73 19 11 49 29 65 39 17 10 57 33 90 51 33 18 63
37 66 42 3 5 9 9 13 9 6 -1 87 39 171 85 22 12 69 37 105 55 94 48 204 112
211 122 3 5 9 8 13 7 7 -2 131 63 236 122 30 17 65 42 78 55 23 25 24 32 26
120 1 28 4 55 8 58 4 4 4 13 2 20 -3 7 -6 568 -8 1246 -1 679 -4 1241 -6 1249
-12 38 -45 67 -127 110 -38 20 -88 48 -113 62 -25 14 -63 35 -85 48 -22 12
-44 26 -50 30 -5 4 -30 19 -55 33 -25 13 -70 39 -100 56 -30 17 -67 37 -82 44
-16 6 -28 15 -28 19 0 4 -4 8 -9 8 -7 0 -215 115 -271 150 -59 37 -146 84
-152 82 -5 -1 -8 3 -8 8 0 6 -7 10 -15 10 -8 0 -15 4 -15 9 0 5 -8 11 -17 14
-10 4 -63 31 -118 62 -55 31 -112 61 -127 68 -16 6 -28 15 -28 19 0 4 -4 8 -8
8 -5 0 -94 49 -198 110 -104 60 -195 110 -201 110 -7 0 -13 3 -13 8 0 4 -31
23 -68 42 -37 19 -69 37 -72 40 -3 3 -15 11 -28 18 -138 77 -197 92 -272 65z"/>
</g>
</svg>
